# xmcd
#
# Track frame offsets:
#	150
#	17860
#	30581
#	45329
#	58139
#	72722
#	91334
#	105992
#	118893
#	137354
#	155635
#	168621
#	187821
#	202337
#	217528
#
# Disc length: 3109 seconds
#
# Revision: 1
# Processed by: cddbd v1.5.1PL0 Copyright (c) Steve Scherf et al.
# Submitted via: audiograbber 1.83.01
#
DISCID=cf0c230f
DTITLE=Silverados - Simly "Thanks to the Fans"
DYEAR=2004
DGENRE=Country
TTITLE0=You ain't going nowhere
TTITLE1=Killin' Time
TTITLE2=One dance with you
TTITLE3=Amarillo by morning
TTITLE4=High cotton
TTITLE5=! saw the light - will the circle be unbroken
TTITLE6=Thank god for the radio
TTITLE7=The wanderer
TTITLE8=Why me lord
TTITLE9=T- for Texas
TTITLE10=Streets of Bakersfield
TTITLE11=You're my best friend
TTITLE12=Winnetou and Old Shatterhand
TTITLE13=Seven spanish angels
TTITLE14=Country Roads
EXTD=
EXTT0=
EXTT1=
EXTT2=
EXTT3=
EXTT4=
EXTT5=
EXTT6=
EXTT7=
EXTT8=
EXTT9=
EXTT10=
EXTT11=
EXTT12=
EXTT13=
EXTT14=
PLAYORDER=
